# xmcd
#
# Track frame offsets:
#  150
#  11250
#  22298
#  34625
#  47173
#  57205
#  67105
#  79165
#  92840
#  103253
#  115620
#  126205
#
# Disc length: 1835 seconds
#
# Revision: 0
# Processed by: cddbd v1.4PL0 Copyright (c) Steve Scherf et al.
# Submitted via: AltoMP3_Maker 3.0
#
DISCID=9e07290c
DTITLE=Jerry Reed - All time Greatest Hits (1)
DYEAR=1900
DGENRE=
TTITLE0=Guitar Man
TTITLE1=US Male
TTITLE2=Tupelo Mississippi Flash
TTITLE3=500 Miles Away From Home
TTITLE4=Last Train To Clarksville
TTITLE5=Are You From Dixie
TTITLE6=Georgia Sunshine
TTITLE7=Back Home In Georgia
TTITLE8=Amos Moses
TTITLE9=The Preacher And The Bear
TTITLE10=When You're Hot You're Hot
TTITLE11=Ko-Ko Joe
EXTD=
EXTT0=
EXTT1=
EXTT2=
EXTT3=
EXTT4=
EXTT5=
EXTT6=
EXTT7=
EXTT8=
EXTT9=
EXTT10=
EXTT11=
PLAYORDER=
